<svg width="188" height="283" viewBox="0 0 188 283" fill="none" xmlns="http://www.w3.org/2000/svg">
    <path d="M108.5 173V268C108.5 276.008 102.008 282.5 94 282.5C85.9919 282.5 79.5 276.008 79.5 268V173C79.5 164.992 85.9919 158.5 94 158.5C102.008 158.5 108.5 164.992 108.5 173Z" fill="#CFCFCF" stroke="#007E8F"/>
    <path d="M180.5 86C180.5 128.74 142.414 164.5 94 164.5C45.5855 164.5 7.5 128.74 7.5 86C7.5 43.2596 45.5855 7.5 94 7.5C142.414 7.5 180.5 43.2596 180.5 86Z" fill="white" stroke="#007E8F" stroke-width="15"/>
    <path d="M49 126V63.7778H69V46H119V81.5556H139V126H99V108.222H89V126H49ZM59 117.111H69V108.222H59V117.111ZM59 99.3333H69V90.4444H59V99.3333ZM59 81.5556H69V72.6667H59V81.5556ZM79 99.3333H89V90.4444H79V99.3333ZM79 81.5556H89V72.6667H79V81.5556ZM79 63.7778H89V54.8889H79V63.7778ZM99 99.3333H109V90.4444H99V99.3333ZM99 81.5556H109V72.6667H99V81.5556ZM99 63.7778H109V54.8889H99V63.7778ZM119 117.111H129V108.222H119V117.111ZM119 99.3333H129V90.4444H119V99.3333Z" fill="#007E8F"/>
</svg>
