<svg width="20" height="20" viewBox="0 0 28 28" fill="none" xmlns="http://www.w3.org/2000/svg">
    <path d="M14 18.2C14.3967 18.2 14.7292 18.0658 14.9975 17.7975C15.2658 17.5292 15.4 17.1967 15.4 16.8C15.4 16.4033 15.2658 16.0708 14.9975 15.8025C14.7292 15.5342 14.3967 15.4 14 15.4C13.6033 15.4 13.2708 15.5342 13.0025 15.8025C12.7342 16.0708 12.6 16.4033 12.6 16.8C12.6 17.1967 12.7342 17.5292 13.0025 17.7975C13.2708 18.0658 13.6033 18.2 14 18.2ZM12.6 12.6H15.4V4.2H12.6V12.6ZM0 28V2.8C0 2.03 0.274167 1.37083 0.8225 0.8225C1.37083 0.274167 2.03 0 2.8 0H25.2C25.97 0 26.6292 0.274167 27.1775 0.8225C27.7258 1.37083 28 2.03 28 2.8V19.6C28 20.37 27.7258 21.0292 27.1775 21.5775C26.6292 22.1258 25.97 22.4 25.2 22.4H5.6L0 28ZM4.41 19.6H25.2V2.8H2.8V21.175L4.41 19.6Z" fill="white"/>
</svg>
