<svg width="30" height="30" viewBox="0 0 50 50" fill="none" xmlns="http://www.w3.org/2000/svg">
    <circle cx="25" cy="25" r="25" fill="#007E8F"/>
    <path d="M25 29.2C25.3967 29.2 25.7292 29.0658 25.9975 28.7975C26.2658 28.5292 26.4 28.1967 26.4 27.8C26.4 27.4033 26.2658 27.0708 25.9975 26.8025C25.7292 26.5342 25.3967 26.4 25 26.4C24.6033 26.4 24.2708 26.5342 24.0025 26.8025C23.7342 27.0708 23.6 27.4033 23.6 27.8C23.6 28.1967 23.7342 28.5292 24.0025 28.7975C24.2708 29.0658 24.6033 29.2 25 29.2ZM23.6 23.6H26.4V15.2H23.6V23.6ZM11 39V13.8C11 13.03 11.2742 12.3708 11.8225 11.8225C12.3708 11.2742 13.03 11 13.8 11H36.2C36.97 11 37.6292 11.2742 38.1775 11.8225C38.7258 12.3708 39 13.03 39 13.8V30.6C39 31.37 38.7258 32.0292 38.1775 32.5775C37.6292 33.1258 36.97 33.4 36.2 33.4H16.6L11 39ZM15.41 30.6H36.2V13.8H13.8V32.175L15.41 30.6Z" fill="white"/>
</svg>
