<svg width="64" height="56" viewBox="0 0 64 56" fill="none" xmlns="http://www.w3.org/2000/svg">
<path id="MapIcon" d="M45.3336 13.2524C45.3336 19.3241 37.2112 30.1437 33.6448 34.6023C33.4491 34.8518 33.1994 35.0535 32.9146 35.1922C32.6297 35.3309 32.3171 35.4029 32.0004 35.4029C31.6837 35.4029 31.3711 35.3309 31.0862 35.1922C30.8014 35.0535 30.5517 34.8518 30.356 34.6023C26.7896 30.1429 18.6672 19.3233 18.6672 13.2524C18.6945 9.72822 20.1112 6.35769 22.6087 3.87533C25.1062 1.39296 28.482 0 32.0004 0C35.5188 0 38.8946 1.39296 41.3921 3.87533C43.8896 6.35769 45.3064 9.72822 45.3336 13.2524ZM46.2224 22.1929C46.6112 21.426 46.9672 20.6583 47.2888 19.9018C47.344 19.768 47.4 19.6238 47.4552 19.4908L60.3448 14.3326C60.7492 14.1704 61.1871 14.11 61.6202 14.1567C62.0533 14.2033 62.4683 14.3556 62.829 14.6002C63.1898 14.8448 63.4851 15.1742 63.6892 15.5597C63.8934 15.9451 64.0001 16.3748 64 16.8111V46.9236C63.9982 47.4576 63.8374 47.9788 63.5381 48.4207C63.2388 48.8625 62.8147 49.2048 62.32 49.4037L46.2224 55.8417V22.1929ZM15.2888 15.2878C15.585 16.8755 16.0622 18.424 16.7112 19.9026C17.0312 20.6591 17.3888 21.4252 17.7776 22.1937V50.1522L3.6552 55.8088C3.25069 55.971 2.81264 56.0314 2.37942 55.9847C1.94621 55.9379 1.53104 55.7855 1.17029 55.5407C0.809547 55.2959 0.514225 54.9663 0.310197 54.5806C0.106169 54.195 -0.000339779 53.7651 8.14298e-07 53.3287V23.2162C0.00175809 22.6822 0.162582 22.1609 0.461878 21.7191C0.761174 21.2773 1.18532 20.935 1.68 20.736L15.3024 15.287L15.2888 15.2878ZM36.4224 36.8268C37.9672 34.8916 40.3888 31.7448 42.6672 28.2646V55.9867L21.3336 49.8813V28.2646C23.6112 31.7448 26.0336 34.8924 27.5784 36.8268C28.1078 37.4929 28.7804 38.0308 29.5461 38.4006C30.3117 38.7703 31.1508 38.9623 32.0008 38.9623C32.8508 38.9623 33.6899 38.7703 34.4555 38.4006C35.2212 38.0308 35.893 37.4929 36.4224 36.8268ZM32 16.8111C32.8781 16.8103 33.7363 16.5487 34.4661 16.0595C35.1958 15.5702 35.7644 14.8752 36.0999 14.0624C36.4354 13.2495 36.5228 12.3552 36.351 11.4926C36.1792 10.63 35.7559 9.83782 35.1347 9.21613C34.5135 8.59443 33.7222 8.17118 32.8609 7.99987C31.9996 7.82856 31.1069 7.91688 30.2957 8.25368C29.4844 8.59047 28.7911 9.16061 28.3033 9.89202C27.8155 10.6234 27.5552 11.4833 27.5552 12.3629C27.5554 12.9473 27.6706 13.526 27.894 14.0658C28.1175 14.6057 28.445 15.0961 28.8578 15.5092C29.2705 15.9223 29.7605 16.2498 30.2996 16.4732C30.8388 16.6966 31.4165 16.8114 32 16.8111Z" fill="white"/>
</svg>
