<svg width="20" height="20" viewBox="0 0 35 35" fill="none" xmlns="http://www.w3.org/2000/svg">
    <path d="M15.75 26.25H19.25V15.75H15.75V26.25ZM17.5 12.25C17.9958 12.25 18.4115 12.0823 18.7469 11.7469C19.0823 11.4115 19.25 10.9958 19.25 10.5C19.25 10.0042 19.0823 9.58854 18.7469 9.25313C18.4115 8.91771 17.9958 8.75 17.5 8.75C17.0042 8.75 16.5885 8.91771 16.2531 9.25313C15.9177 9.58854 15.75 10.0042 15.75 10.5C15.75 10.9958 15.9177 11.4115 16.2531 11.7469C16.5885 12.0823 17.0042 12.25 17.5 12.25ZM17.5 35C15.0792 35 12.8042 34.5406 10.675 33.6219C8.54583 32.7031 6.69375 31.4562 5.11875 29.8813C3.54375 28.3062 2.29688 26.4542 1.37812 24.325C0.459375 22.1958 0 19.9208 0 17.5C0 15.0792 0.459375 12.8042 1.37812 10.675C2.29688 8.54583 3.54375 6.69375 5.11875 5.11875C6.69375 3.54375 8.54583 2.29688 10.675 1.37812C12.8042 0.459375 15.0792 0 17.5 0C19.9208 0 22.1958 0.459375 24.325 1.37812C26.4542 2.29688 28.3062 3.54375 29.8813 5.11875C31.4562 6.69375 32.7031 8.54583 33.6219 10.675C34.5406 12.8042 35 15.0792 35 17.5C35 19.9208 34.5406 22.1958 33.6219 24.325C32.7031 26.4542 31.4562 28.3062 29.8813 29.8813C28.3062 31.4562 26.4542 32.7031 24.325 33.6219C22.1958 34.5406 19.9208 35 17.5 35ZM17.5 31.5C21.4083 31.5 24.7188 30.1437 27.4312 27.4312C30.1437 24.7188 31.5 21.4083 31.5 17.5C31.5 13.5917 30.1437 10.2812 27.4312 7.56875C24.7188 4.85625 21.4083 3.5 17.5 3.5C13.5917 3.5 10.2812 4.85625 7.56875 7.56875C4.85625 10.2812 3.5 13.5917 3.5 17.5C3.5 21.4083 4.85625 24.7188 7.56875 27.4312C10.2812 30.1437 13.5917 31.5 17.5 31.5Z" fill="white"/>
</svg>
