<svg width="18" height="20" viewBox="0 0 18 20" fill="none" xmlns="http://www.w3.org/2000/svg">
<g clip-path="url(#clip0_649_315)">
<path d="M15.625 8.75H14.6875V5.9375C14.6875 2.66406 12.0234 0 8.75 0C5.47656 0 2.8125 2.66406 2.8125 5.9375V8.75H1.875C0.839844 8.75 0 9.58984 0 10.625V18.125C0 19.1602 0.839844 20 1.875 20H15.625C16.6602 20 17.5 19.1602 17.5 18.125V10.625C17.5 9.58984 16.6602 8.75 15.625 8.75ZM11.5625 8.75H5.9375V5.9375C5.9375 4.38672 7.19922 3.125 8.75 3.125C10.3008 3.125 11.5625 4.38672 11.5625 5.9375V8.75Z" fill="#005762"/>
<path d="M14.1875 8.75V9.25H14.6875H15.625C16.384 9.25 17 9.86599 17 10.625V18.125C17 18.884 16.384 19.5 15.625 19.5H1.875C1.11599 19.5 0.5 18.884 0.5 18.125V10.625C0.5 9.86599 1.11599 9.25 1.875 9.25H2.8125H3.3125V8.75V5.9375C3.3125 2.9402 5.75271 0.5 8.75 0.5C11.7473 0.5 14.1875 2.9402 14.1875 5.9375V8.75ZM11.5625 9.25H12.0625V8.75V5.9375C12.0625 4.11058 10.5769 2.625 8.75 2.625C6.92308 2.625 5.4375 4.11058 5.4375 5.9375V8.75V9.25H5.9375H11.5625Z" stroke="white" stroke-opacity="0.1"/>
</g>
<defs>
<clipPath id="clip0_649_315">
<rect width="17.5" height="20" fill="white"/>
</clipPath>
</defs>
</svg>
