<svg width="40" height="40" viewBox="0 0 40 40" fill="none" xmlns="http://www.w3.org/2000/svg">
<g id="Group 164">
<g id="Rectangle 153">
<rect width="40" height="40" rx="10" fill="#3FB2C2"/>
<rect x="1" y="1" width="38" height="38" rx="9" stroke="black" stroke-opacity="0.3" stroke-width="2"/>
</g>
<g id="Vector">
<path d="M20 10C21.3261 10 22.5979 10.5268 23.5355 11.4645C24.4732 12.4021 25 13.6739 25 15C25 16.3261 24.4732 17.5979 23.5355 18.5355C22.5979 19.4732 21.3261 20 20 20C18.6739 20 17.4021 19.4732 16.4645 18.5355C15.5268 17.5979 15 16.3261 15 15C15 13.6739 15.5268 12.4021 16.4645 11.4645C17.4021 10.5268 18.6739 10 20 10ZM20 22.5C25.525 22.5 30 24.7375 30 27.5V30H10V27.5C10 24.7375 14.475 22.5 20 22.5Z" fill="#0B535E"/>
<path d="M20 10.75C21.1272 10.75 22.2082 11.1978 23.0052 11.9948L23.5226 11.4774L23.0052 11.9948C23.8022 12.7918 24.25 13.8728 24.25 15C24.25 16.1272 23.8022 17.2082 23.0052 18.0052C22.2082 18.8022 21.1272 19.25 20 19.25C18.8728 19.25 17.7918 18.8022 16.9948 18.0052C16.1978 17.2082 15.75 16.1272 15.75 15C15.75 13.8728 16.1978 12.7918 16.9948 11.9948C17.7918 11.1978 18.8728 10.75 20 10.75ZM20 23.25C22.6714 23.25 25.0517 23.7925 26.7365 24.6349C28.4658 25.4996 29.25 26.5557 29.25 27.5V29.25H10.75V27.5C10.75 26.5557 11.5342 25.4996 13.2635 24.6349C14.9483 23.7925 17.3286 23.25 20 23.25Z" stroke="black" stroke-opacity="0.2" stroke-width="1.5"/>
</g>
</g>
</svg>
