<svg width="20" height="20" viewBox="0 0 20 20" fill="none" xmlns="http://www.w3.org/2000/svg">
<path d="M10 0C11.3261 0 12.5979 0.526784 13.5355 1.46447C14.4732 2.40215 15 3.67392 15 5C15 6.32608 14.4732 7.59785 13.5355 8.53553C12.5979 9.47322 11.3261 10 10 10C8.67392 10 7.40215 9.47322 6.46447 8.53553C5.52678 7.59785 5 6.32608 5 5C5 3.67392 5.52678 2.40215 6.46447 1.46447C7.40215 0.526784 8.67392 0 10 0ZM10 12.5C15.525 12.5 20 14.7375 20 17.5V20H0V17.5C0 14.7375 4.475 12.5 10 12.5Z" fill="#005762"/>
<path d="M10 0.5C11.1935 0.5 12.3381 0.974106 13.182 1.81802C14.0259 2.66193 14.5 3.80653 14.5 5C14.5 6.19347 14.0259 7.33807 13.182 8.18198C12.3381 9.02589 11.1935 9.5 10 9.5C8.80653 9.5 7.66193 9.02589 6.81802 8.18198C5.97411 7.33807 5.5 6.19347 5.5 5C5.5 3.80653 5.97411 2.66193 6.81802 1.81802C7.66193 0.974106 8.80653 0.5 10 0.5ZM10 13C12.7018 13 15.122 13.5481 16.8483 14.4113C18.6043 15.2893 19.5 16.41 19.5 17.5V19.5H0.5V17.5C0.5 16.41 1.39569 15.2893 3.15173 14.4113C4.878 13.5481 7.29823 13 10 13Z" stroke="white" stroke-opacity="0.1"/>
</svg>
